<svg xmlns="http://www.w3.org/2000/svg" width="1024" height="1024" viewBox="0 0 1024 1024">
<g>
<path d="M 416.39 569.25 C415.42,571.31 414.36,573.00 414.04,573.00 C412.14,573.00 408.62,569.18 406.37,564.68 C404.94,561.83 403.20,558.83 402.50,558.00 C401.79,557.17 398.92,551.98 396.11,546.46 C391.74,537.88 391.00,535.59 391.00,530.74 C391.00,525.22 391.27,524.65 401.41,509.28 C407.14,500.60 412.91,492.15 414.24,490.50 C415.57,488.85 418.81,484.35 421.45,480.50 C424.08,476.65 427.99,471.39 430.12,468.82 C432.25,466.25 434.00,463.83 434.00,463.44 C434.00,463.06 435.46,461.03 437.25,458.93 C439.04,456.84 442.52,452.55 445.00,449.40 C447.48,446.24 450.90,442.05 452.61,440.08 C454.33,438.11 456.48,435.04 457.39,433.25 C458.30,431.46 459.47,430.00 459.98,430.00 C460.49,430.00 462.34,427.86 464.09,425.25 C465.84,422.64 468.29,419.38 469.55,418.00 C479.26,407.35 482.96,403.03 485.02,400.00 C486.33,398.08 487.93,396.17 488.59,395.76 C491.06,394.23 512.79,369.36 514.40,366.22 L 516.09 362.93 L 511.29 363.55 C508.66,363.89 504.48,364.85 502.00,365.68 C499.52,366.52 497.05,367.28 496.50,367.38 C495.95,367.48 495.05,367.82 494.50,368.15 C493.95,368.47 487.42,370.20 480.00,371.99 C472.58,373.77 465.81,375.58 464.96,376.00 C464.11,376.42 459.61,377.73 454.96,378.92 C450.31,380.11 443.58,381.96 440.00,383.04 C422.14,388.40 401.41,394.00 399.37,394.00 C397.15,394.00 397.12,393.90 398.47,390.07 C400.06,385.57 412.73,366.54 416.50,363.00 C419.33,360.34 423.91,358.42 432.00,356.49 C435.02,355.78 440.37,354.24 443.88,353.09 C447.39,351.94 450.76,351.00 451.38,350.99 C452.00,350.99 453.85,350.26 455.50,349.38 C457.15,348.50 459.17,347.68 460.00,347.57 C462.61,347.22 467.33,345.86 472.79,343.90 C475.70,342.86 478.93,342.00 479.97,342.00 C481.01,342.00 482.51,341.35 483.31,340.55 C484.11,339.75 485.03,339.36 485.36,339.69 C485.68,340.02 488.55,339.38 491.73,338.26 C494.90,337.15 499.75,335.67 502.50,334.97 C505.25,334.28 507.93,333.32 508.45,332.85 C508.97,332.38 510.16,332.00 511.09,332.00 C512.52,332.00 525.29,328.13 530.00,326.28 C530.83,325.95 531.83,325.75 532.24,325.84 C532.65,325.92 538.28,324.18 544.74,321.96 C551.21,319.74 557.40,317.79 558.51,317.63 C559.61,317.46 561.41,316.86 562.51,316.30 C563.60,315.73 565.08,315.48 565.78,315.73 C566.49,315.98 567.61,315.78 568.28,315.27 C568.95,314.77 571.53,313.81 574.00,313.13 C578.76,311.83 593.18,307.45 603.92,304.05 C607.46,302.93 610.58,302.25 610.87,302.54 C611.16,302.82 608.36,306.11 604.67,309.83 C600.97,313.56 598.17,316.84 598.46,317.13 C598.74,317.41 594.59,322.39 589.24,328.19 C583.88,333.99 575.67,343.12 571.00,348.49 C566.33,353.86 559.80,361.28 556.50,364.99 C553.20,368.70 548.37,374.38 545.77,377.62 C543.17,380.85 537.32,388.00 532.76,393.50 C528.20,399.00 521.78,407.05 518.49,411.39 C515.19,415.72 511.04,421.12 509.26,423.39 C507.47,425.65 504.90,429.08 503.54,431.00 C502.18,432.92 499.71,436.30 498.06,438.50 C490.84,448.10 473.87,472.07 467.63,481.50 C448.84,509.89 425.34,550.13 416.39,569.25 ZM 607.87 554.53 C604.02,555.34 600.11,555.93 599.18,555.85 C595.11,555.49 591.39,554.87 590.00,554.32 C589.17,554.00 587.48,553.60 586.24,553.43 C578.99,552.47 566.35,541.48 561.88,532.26 C559.85,528.07 559.63,526.28 559.86,516.02 C560.12,504.16 561.97,495.10 564.56,492.95 C565.36,492.29 566.99,490.02 568.17,487.91 C569.35,485.81 571.49,483.60 572.91,483.01 C574.33,482.42 577.50,480.75 579.94,479.29 C585.81,475.79 592.51,474.51 603.75,474.76 C611.51,474.94 613.84,475.39 618.21,477.60 C625.73,481.42 638.50,495.17 636.43,497.23 C636.16,497.50 636.39,498.90 636.94,500.34 C637.49,501.78 638.01,508.73 638.11,515.80 C638.29,528.20 638.19,528.82 635.49,533.57 C629.26,544.50 619.19,552.15 607.87,554.53 ZM 483.79 573.75 C482.07,575.82 481.17,575.23 477.65,569.75 C475.80,566.86 472.26,561.35 469.79,557.50 C463.60,547.87 461.00,542.54 461.00,539.51 C461.00,538.10 462.10,534.34 463.44,531.15 C465.96,525.15 482.63,497.05 488.56,488.79 C490.42,486.20 492.60,482.49 493.42,480.55 C494.23,478.61 495.93,475.97 497.19,474.70 C499.24,472.64 501.81,469.10 509.66,457.52 C513.81,451.40 517.64,449.00 523.27,449.00 L 528.39 449.00 L 538.15 458.96 C543.52,464.43 549.13,470.75 550.61,472.99 L 553.30 477.06 L 549.15 485.79 C546.87,490.60 545.00,495.03 545.00,495.64 C545.00,496.25 544.29,497.35 543.41,498.07 C542.05,499.20 541.38,498.88 538.66,495.77 C534.70,491.24 531.39,490.13 529.43,492.66 C524.38,499.22 500.09,541.83 491.05,560.00 C487.63,566.88 484.36,573.06 483.79,573.75 Z" fill="rgb(18,18,18)"/>
<path d="M 575.09 343.84 C579.62,338.74 585.23,332.53 589.24,328.19 C594.59,322.39 598.74,317.41 598.46,317.13 C598.17,316.84 600.97,313.56 604.67,309.83 C608.36,306.11 611.16,302.82 610.87,302.54 C610.58,302.25 607.46,302.93 603.92,304.05 C593.18,307.45 578.76,311.83 574.00,313.13 C571.53,313.81 568.95,314.77 568.28,315.27 C567.61,315.78 566.49,315.98 565.78,315.73 C565.08,315.48 563.60,315.73 562.51,316.30 C561.41,316.86 559.61,317.46 558.51,317.63 C557.40,317.79 551.21,319.74 544.74,321.96 C538.28,324.18 532.65,325.92 532.24,325.84 C531.83,325.75 530.83,325.95 530.00,326.28 C525.29,328.13 512.52,332.00 511.09,332.00 C510.16,332.00 508.97,332.38 508.45,332.85 C507.93,333.32 505.25,334.28 502.50,334.97 C499.75,335.67 494.90,337.15 491.73,338.26 C488.55,339.38 485.68,340.02 485.36,339.69 C485.03,339.36 484.11,339.75 483.31,340.55 C482.51,341.35 481.01,342.00 479.97,342.00 C478.93,342.00 475.70,342.86 472.79,343.90 C467.33,345.86 462.61,347.22 460.00,347.57 C459.17,347.68 457.15,348.50 455.50,349.38 C453.85,350.26 452.00,350.99 451.38,350.99 C450.76,351.00 447.39,351.94 443.88,353.09 C440.37,354.24 435.02,355.78 432.00,356.49 C423.91,358.42 419.33,360.34 416.50,363.00 C412.73,366.54 400.06,385.57 398.47,390.07 C397.12,393.90 397.15,394.00 399.37,394.00 C400.21,394.00 404.24,393.05 409.93,391.55 C403.86,393.27 399.12,394.68 398.22,395.05 C395.08,396.34 394.37,394.13 396.55,389.84 C398.99,385.01 412.39,364.95 415.18,361.94 C416.69,360.31 420.62,358.42 426.02,356.73 C439.09,352.65 459.11,346.48 474.00,341.96 C481.42,339.70 488.62,337.49 490.00,337.05 C495.04,335.43 512.78,330.00 523.00,326.96 C528.78,325.24 540.70,321.61 549.50,318.88 C558.30,316.15 568.42,313.06 572.00,312.01 C575.58,310.95 583.00,308.75 588.50,307.12 C594.00,305.49 601.66,303.22 605.53,302.08 C616.12,298.94 617.34,299.42 611.89,304.56 C607.20,308.99 586.22,331.44 575.09,343.84 ZM 594.88 472.89 C599.32,471.35 606.86,472.75 614.08,475.87 C611.57,475.11 608.82,474.88 603.75,474.76 C592.51,474.51 585.81,475.79 579.94,479.29 C577.50,480.75 574.33,482.42 572.91,483.01 C571.49,483.60 569.35,485.81 568.17,487.91 C566.99,490.02 565.36,492.29 564.56,492.95 C561.97,495.10 560.12,504.16 559.86,516.02 C559.68,524.17 559.78,526.97 560.85,529.88 C558.94,525.07 558.00,519.80 558.00,513.99 C558.00,501.29 563.41,488.74 571.56,482.53 C576.42,478.82 586.44,474.00 589.29,474.00 C590.62,474.00 593.13,473.50 594.88,472.89 ZM 637.45 529.46 C638.23,526.98 638.23,523.91 638.11,515.80 C638.01,508.73 637.49,501.78 636.94,500.34 C636.39,498.90 636.16,497.50 636.43,497.23 C636.68,496.98 636.71,496.56 636.57,496.01 C639.35,501.51 640.17,507.52 639.85,516.21 C639.59,523.17 639.26,525.57 637.45,529.46 ZM 416.39 569.25 C418.82,564.06 422.32,557.32 426.50,549.68 C422.62,556.83 419.33,563.21 416.92,568.37 C415.21,572.01 413.46,575.00 413.03,575.00 C411.81,575.00 410.50,573.04 407.00,566.00 C405.34,562.65 403.45,559.27 402.64,558.19 C403.42,559.21 405.03,562.01 406.37,564.68 C408.62,569.18 412.14,573.00 414.04,573.00 C414.36,573.00 415.42,571.31 416.39,569.25 ZM 562.12 532.73 C564.98,538.34 570.76,544.53 576.44,548.68 C574.46,547.37 572.58,545.95 571.15,544.62 C567.27,541.00 564.27,537.05 562.12,532.73 ZM 632.52 489.87 C629.96,486.88 626.53,483.55 623.27,480.97 C625.02,482.21 626.62,483.53 628.01,484.91 C629.73,486.63 631.23,488.27 632.52,489.87 ZM 607.87 554.53 C615.44,552.94 622.45,548.99 628.13,543.28 C622.52,549.02 615.61,552.90 607.87,554.53 ZM 456.71 498.48 C460.43,492.55 464.11,486.82 467.63,481.50 C470.80,476.71 476.74,468.17 482.76,459.66 C476.73,468.19 470.79,476.74 467.65,481.50 C464.04,486.96 460.36,492.67 456.71,498.48 ZM 446.77 381.10 C449.57,380.33 452.54,379.54 454.96,378.92 C456.02,378.65 457.08,378.37 458.09,378.10 C456.55,378.52 454.86,378.97 453.14,379.42 C451.05,379.96 448.84,380.54 446.77,381.10 ZM 585.98 553.40 C586.07,553.41 586.15,553.42 586.24,553.43 C587.48,553.60 589.16,554.00 589.99,554.32 C589.16,554.00 587.46,553.60 586.19,553.43 C586.12,553.42 586.05,553.41 585.98,553.40 ZM 464.77 376.08 C464.84,376.05 464.91,376.02 464.96,376.00 C465.43,375.76 467.75,375.10 470.99,374.25 C467.75,375.10 465.43,375.77 464.95,376.00 C464.90,376.02 464.84,376.05 464.77,376.08 Z" fill="rgb(81,81,81)"/>
<path d="M 0.00 512.00 L 0.00 0.00 L 512.00 0.00 L 1024.00 0.00 L 1024.00 512.00 L 1024.00 1024.00 L 512.00 1024.00 L 0.00 1024.00 L 0.00 512.00 ZM 416.92 568.37 C426.11,548.72 447.92,511.37 467.65,481.50 C473.82,472.15 490.75,448.22 498.06,438.50 C499.71,436.30 502.18,432.92 503.54,431.00 C504.90,429.08 507.47,425.65 509.26,423.39 C511.04,421.12 515.19,415.72 518.49,411.39 C521.78,407.05 528.20,399.00 532.76,393.50 C537.32,388.00 543.17,380.85 545.77,377.62 C548.37,374.38 553.20,368.70 556.50,364.99 C559.80,361.28 566.33,353.84 571.00,348.46 C579.89,338.23 606.53,309.62 611.89,304.56 C617.34,299.42 616.12,298.94 605.53,302.08 C601.66,303.22 594.00,305.49 588.50,307.12 C583.00,308.75 575.58,310.95 572.00,312.01 C568.42,313.06 558.30,316.15 549.50,318.88 C540.70,321.61 528.78,325.24 523.00,326.96 C512.78,330.00 495.04,335.43 490.00,337.05 C488.62,337.49 481.42,339.70 474.00,341.96 C459.11,346.48 439.09,352.65 426.02,356.73 C420.62,358.42 416.69,360.31 415.18,361.94 C412.39,364.95 398.99,385.01 396.55,389.84 C394.37,394.13 395.08,396.34 398.22,395.05 C399.47,394.54 408.15,392.01 417.50,389.44 C426.85,386.86 436.38,384.15 438.69,383.41 C440.99,382.67 447.49,380.87 453.14,379.42 C458.78,377.96 464.10,376.42 464.95,376.00 C465.80,375.58 472.58,373.77 480.00,371.99 C487.42,370.20 493.95,368.47 494.50,368.15 C495.05,367.82 495.95,367.48 496.50,367.38 C497.05,367.28 499.52,366.52 502.00,365.68 C504.48,364.85 508.66,363.89 511.29,363.55 L 516.09 362.93 L 514.40 366.22 C512.79,369.36 491.06,394.23 488.59,395.76 C487.93,396.17 486.33,398.08 485.02,400.00 C482.96,403.03 479.26,407.35 469.55,418.00 C468.29,419.38 465.84,422.64 464.09,425.25 C462.34,427.86 460.49,430.00 459.98,430.00 C459.47,430.00 458.30,431.46 457.39,433.25 C456.48,435.04 454.33,438.11 452.61,440.08 C450.90,442.05 447.48,446.24 445.00,449.40 C442.52,452.55 439.04,456.84 437.25,458.93 C435.46,461.03 434.00,463.06 434.00,463.44 C434.00,463.83 432.25,466.25 430.12,468.82 C427.99,471.39 424.08,476.65 421.45,480.50 C418.81,484.35 415.57,488.85 414.24,490.50 C412.91,492.15 407.14,500.60 401.41,509.28 C391.27,524.65 391.00,525.22 391.00,530.74 C391.00,535.59 391.74,537.88 396.11,546.46 C398.92,551.98 401.80,557.17 402.50,558.00 C403.20,558.83 405.23,562.42 407.00,566.00 C410.50,573.04 411.81,575.00 413.03,575.00 C413.46,575.00 415.21,572.01 416.92,568.37 ZM 483.79 573.75 C484.36,573.06 487.63,566.88 491.05,560.00 C500.09,541.83 524.38,499.22 529.43,492.66 C531.39,490.13 534.70,491.24 538.66,495.77 C541.38,498.88 542.05,499.20 543.41,498.07 C544.29,497.35 545.00,496.25 545.00,495.64 C545.00,495.03 546.87,490.60 549.15,485.79 L 553.30 477.06 L 550.61 472.99 C549.13,470.75 543.52,464.43 538.15,458.96 L 528.39 449.00 L 523.27 449.00 C517.64,449.00 513.81,451.40 509.66,457.52 C501.81,469.10 499.24,472.64 497.19,474.70 C495.93,475.97 494.23,478.61 493.42,480.55 C492.60,482.49 490.42,486.20 488.56,488.79 C482.63,497.05 465.96,525.15 463.44,531.15 C462.10,534.34 461.00,538.10 461.00,539.51 C461.00,542.54 463.60,547.87 469.79,557.50 C472.26,561.35 475.80,566.86 477.65,569.75 C481.17,575.23 482.07,575.82 483.79,573.75 ZM 607.87 554.53 C619.91,552.00 629.95,544.02 636.16,532.07 C639.12,526.36 639.54,524.58 639.85,516.21 C640.39,501.67 637.73,494.63 628.01,484.91 C619.45,476.36 602.54,470.22 594.88,472.89 C593.13,473.50 590.62,474.00 589.29,474.00 C586.44,474.00 576.42,478.82 571.56,482.53 C563.41,488.74 558.00,501.29 558.00,513.99 C558.00,526.39 562.27,536.34 571.15,544.62 C575.24,548.43 583.07,553.02 586.19,553.43 C587.46,553.60 589.17,554.00 590.00,554.32 C591.39,554.87 595.11,555.49 599.18,555.85 C600.11,555.93 604.02,555.34 607.87,554.53 Z" fill="rgb(254,254,254)"/>
</g>
</svg>